<svg xmlns="http://www.w3.org/2000/svg" width="181" height="48" fill="none" viewBox="0 0 181 48"><path fill="#83898f" d="M22.7 27q-.3 3.6-2.7 5.7a9 9 0 0 1-6.2 2Q9.5 34.7 7 32q-2.5-3-2.5-7.9v-1.3q0-3.2 1.2-5.7a8 8 0 0 1 8-5 9 9 0 0 1 6.2 2 8 8 0 0 1 2.7 5.8H18q0-2.1-1.2-3-1-1-3-1-2.3 0-3.5 1.6-1 1.6-1.1 5v1.7q0 3.6 1 5.2 1.2 1.7 3.5 1.7 2 0 3.1-1 1-.9 1.2-3zm22.5-2.2h-8.8v6h10.3v3.6H31.9v-22h14.7V16H36.4v5.3h8.8zM68 29.9h-8l-1.5 4.5h-4.8l8.2-22h4.2l8.3 22h-4.8zm-6.7-3.7h5.5L64 17.9zM97.5 16h-6.8v18.4h-4.5V16h-6.7v-3.7h18zm26.8 18.4h-4.5V25h-8.9v9.5h-4.6v-22h4.6v8.9h8.9v-9h4.5zm23.5-9.6h-8.7v6h10.3v3.6h-14.9v-22h14.8V16h-10.2v5.3h8.7zm21.9 3.8q0-1.2-.9-2-.9-.6-3.3-1.4t-3.7-1.5q-3.8-2-3.8-5.5 0-1.8 1-3.2t3-2.2a11 11 0 0 1 4.2-.8q2.3 0 4.2.9 1.8.8 2.8 2.4t1 3.5h-4.5a3 3 0 0 0-1-2.3 4 4 0 0 0-2.6-.9q-1.7 0-2.6.8-1 .6-1 1.8 0 1 1.1 1.8t3.2 1.4q3.9 1.1 5.7 2.9a6 6 0 0 1 1.8 4.3q0 2.8-2.2 4.5a10 10 0 0 1-5.8 1.6q-2.6 0-4.7-.9a6.6 6.6 0 0 1-4.3-6.3h4.6q0 3.6 4.4 3.6 1.6 0 2.5-.6 1-.6 1-1.9M0 0h181v2.2H0zm0 45.5h181v2.2H0z"/></svg>
