<svg xmlns="http://www.w3.org/2000/svg" width="166" height="66" fill="none" viewBox="0 0 166 66"><path fill="#83898f" d="M16.3 15.7C7.3 15.7 0 23.4 0 33s7.3 17.2 16.3 17.2S32.7 42.5 32.7 33s-7.4-17.2-16.4-17.2m9 25q-.9.8-1.8 1.3-1 .7-2.1 1.2a14 14 0 0 1-9.1.6q-1.6-.5-2.6-1.4a5 5 0 0 1-1.5-2.2q-.5-1.2-.5-2.7 0-2 .9-3.4t2.3-2.3a6 6 0 0 1-1.2-2 6 6 0 0 1-.5-2.4q0-1.4.5-2.6t1.4-2a7 7 0 0 1 4.7-2 7 7 0 0 1 5 2q.9 1 1.3 2 .5 1.3.5 2.8t-.9 2.9q-.8 1.2-2 2.2l2.8 2.6.8-.9 1-1.2 4.1 3.8-1.4 2zm-1.7-3-1.2 1-2.7 1.5a9 9 0 0 1-5.3.5q-.8-.2-1.4-.6L12 39a3 3 0 0 1-.5-1.7q0-1.5.8-2.3.7-.9 2.2-1.6l1-.6 5 4.4.6-.5-4.9-4.2q1.8-1 2.8-2.2a4 4 0 0 0 .7-4.4q-.2-.7-.9-1.2l-1.3-.8q-.8-.3-1.7-.3l-1.5.3-1.3.8q-.6.5-1 1.2-.3.7-.3 1.7 0 1.2.7 2.1t1.7 1.9l.8.7-.7.4-1.3.8q-.7.4-1.1 1t-.7 1.2l-.2 1.5q-.1 1 .4 2t1.2 1.3q.7.6 1.7.8t2 .3a11 11 0 0 0 6.8-2.4q1.4-1 2.5-2.4l-.7-.4zm-9-6.6a7 7 0 0 1-1.7-2q-.4-.7-.4-1.5 0-1.4.9-2.3t2.2-.9a4 4 0 0 1 2.4.8l.8 1q.2.5.3 1.4 0 1.5-1 2.5a11 11 0 0 1-2.6 1.9zm2.1-2.7q.3-.4.3-1 0-1.2-1.2-1.2-.5 0-.8.3t-.3 1l.1.8.8 1q.8-.5 1.1-.9m-2.5 8.8q0 .8.6 1.1t1.4.4h1l1-.3-3.1-2.7q-.9.5-.9 1.5"/><path fill="#83898f" d="M17 0h-1.4v17.3H17zm0 46.7h-1.4v19.2H17zM58 30q-3.6 0-6.5-1.7a12 12 0 0 1-6.3-10.8q0-3.4 1.7-6.3 1.6-3 4.6-4.5t6.6-1.6q2.8 0 5.2 1t4 2.8L65.1 11a9 9 0 0 0-6.9-2.9q-2.7 0-4.9 1.2a9 9 0 0 0-4.6 8.1q0 2.7 1.2 4.8a9 9 0 0 0 3.4 3.3q2.2 1.2 5 1.2 4 0 6.8-2.9l2.2 2.2a11 11 0 0 1-4 2.9q-2.4 1-5.2 1M74 14.4q.8-1.5 2.5-2.5 1.7-.8 4.1-.8v3.2H80q-2.7 0-4.3 1.6T74 20.5v9.2h-3.4V11.3H74zm26.1 6.2v1H85q.3 2.4 2.2 3.9a7 7 0 0 0 4.5 1.5q3.3 0 5.3-2.3l1.8 2.2a8 8 0 0 1-3 2.2q-2 .8-4.2.8-3 0-5.2-1.2T83 25.3q-1.2-2.1-1.2-4.8t1.2-4.8q1.2-2.2 3.3-3.4t4.7-1.2a9 9 0 0 1 4.7 1.2q2.1 1.3 3.2 3.4a10 10 0 0 1 1.2 4.9m-9-6.7q-2.5 0-4 1.5-1.8 1.5-2 3.8H97a6 6 0 0 0-5.9-5.3m18.8-2.8q3.8 0 5.8 1.9t2 5.6v11h-3.1v-2.4q-.9 1.3-2.4 2t-3.6.7q-3.2 0-5-1.5a5 5 0 0 1-1.8-4q0-2.4 1.7-3.8 1.8-1.5 5.6-1.5h5.3v-.7q0-2.1-1.2-3.3-1.2-1-3.7-1.1a10 10 0 0 0-5.8 2l-1.4-2.5q1.4-1.2 3.4-1.8t4.2-.6m-.8 16.2q2 0 3.3-.8a5 5 0 0 0 2-2.5v-2.5h-5.1q-4.2 0-4.2 2.8 0 1.5 1 2.2a5 5 0 0 0 3 .8m24.1 1.3q-.7.6-1.8 1l-2.2.3q-2.8 0-4.3-1.5t-1.6-4.3v-10h-3v-2.8h3v-4h3.4v4h5.2V14h-5.2v10q0 1.4.7 2.3t2.2.8a4 4 0 0 0 2.6-1zm19-8-.1 1h-15q.4 2.4 2.2 3.9a7 7 0 0 0 4.5 1.5q3.3 0 5.4-2.3L151 27a8 8 0 0 1-3.1 2.2q-1.9.8-4.2.8-2.8 0-5.1-1.2t-3.5-3.4-1.2-4.8 1.1-4.8 3.3-3.4 4.8-1.2a9 9 0 0 1 4.7 1.2q2 1.3 3.2 3.4a10 10 0 0 1 1.2 4.9m-9.1-6.7q-2.5 0-4 1.5a6 6 0 0 0-2 3.8H149a6 6 0 0 0-6-5.3m16 .4q.8-1.5 2.5-2.5 1.7-.8 4.1-.8v3.2h-.7q-2.7 0-4.3 1.6t-1.5 4.6v9.2h-3.4V11.3h3.2zM50.7 41v8.5h12.1v3H50.7v9.8h-3.5V38.1h17.1v3zm23 2.8q3.8 0 5.9 1.9 2 1.8 2 5.5v11.1h-3.1V60q-.9 1.3-2.4 2t-3.7.6q-3 0-5-1.4a5 5 0 0 1-1.8-4q0-2.4 1.8-3.8 1.8-1.5 5.6-1.5h5.3V51q0-2.1-1.3-3.3-1.2-1-3.6-1.1a10 10 0 0 0-5.9 2l-1.4-2.5q1.5-1.2 3.4-1.8 2.1-.6 4.2-.6M73 60q1.8 0 3.3-.9a5 5 0 0 0 2-2.4v-2.5H73q-4 0-4 2.8 0 1.5 1 2.2a5 5 0 0 0 3 .8m29.6-16-8 18.3h-3.4l-8-18.3h3.4L93 58.7 99.4 44z"/></svg>
