<svg xmlns="http://www.w3.org/2000/svg" width="18" height="19" fill="currentColor" viewBox="0 0 18 19"><path d="M9 4.4a4.6 4.6 0 1 0 0 9.2 4.6 4.6 0 0 0 0-9.2M9 12a3 3 0 1 1 0-6 3 3 0 0 1 0 6m4.8-6.7a1 1 0 1 0 0-2.2 1 1 0 0 0 0 2.2"/><path d="M17.5 3.1A5 5 0 0 0 15 .5q-1-.4-2.2-.4L9 0H5.3Q4 0 3 .6A5 5 0 0 0 .5 3Q0 4.1 0 5.3v7.4Q0 14 .6 15A5 5 0 0 0 3 17.5q1 .5 2.2.5h7.4q1.2 0 2.2-.4a5 5 0 0 0 2.6-2.7q.4-1 .5-2.2V5.3q0-1.1-.5-2.2m-1.2 9.5-.3 1.7a3 3 0 0 1-1.7 1.7l-1.7.3-3.6.1H5.3L3.6 16A3 3 0 0 1 2 14.3l-.3-1.6V5.3q0-.8.3-1.6a3 3 0 0 1 1.7-1.8l1.7-.3a62 62 0 0 1 9 .3A3 3 0 0 1 16 3.7q.3.7.3 1.6v7.3"/></svg>
