<svg xmlns="http://www.w3.org/2000/svg" width="147" height="44" fill="none" viewBox="0 0 147 44"><path stroke="#83898f" stroke-width="3" d="M1.5 0v43.301"/><path fill="#83898f" d="M20.823 15.805h5.18v1.96h-7.62V5.925h2.44zM40.919 15.325H36.64l-.813 2.44h-2.594l4.408-11.84h2.26l4.432 11.84H41.74zM37.3 13.35h2.96l-1.488-4.432zM55.843 14.829l2.683-8.905h2.716l-4.123 11.84h-2.545l-4.107-11.84h2.708zM76.15 12.633h-4.684v3.172h5.497v1.96h-7.937V5.925h7.92V7.9h-5.48v2.821h4.684zM94.685 17.765h-2.44l-4.75-7.79v7.79h-2.439V5.925h2.44l4.757 7.806V5.924h2.432zM103.477 17.765V5.925h3.643q1.562 0 2.789.707a4.87 4.87 0 0 1 1.928 2q.69 1.293.691 2.944v.545q0 1.651-.683 2.936a4.84 4.84 0 0 1-1.911 1.992q-1.236.707-2.79.716zm2.439-9.864v7.904h1.18q1.431 0 2.187-.935.756-.936.773-2.676v-.626q0-1.805-.748-2.732-.748-.936-2.188-.935zM128.094 12.633h-4.684v3.172h5.497v1.96h-7.936V5.925h7.92V7.9h-5.481v2.821h4.684zM141.384 13.43h-1.944v4.335H137V5.925h4.4q2.098 0 3.236.935 1.139.934 1.139 2.643 0 1.21-.529 2.024-.52.805-1.586 1.285l2.562 4.839v.114h-2.618zm-1.944-1.976h1.968q.92 0 1.423-.463.504-.473.504-1.293 0-.838-.48-1.318-.471-.48-1.455-.48h-1.96zM25.068 36.42H20.79l-.813 2.44h-2.594l4.408-11.84h2.26l4.432 11.84H25.89zm-3.619-1.975h2.96l-1.488-4.432zM45.44 37.364q-.659.789-1.862 1.228-1.204.43-2.667.43-1.538 0-2.7-.666-1.155-.675-1.79-1.952-.625-1.276-.642-3v-.805q0-1.773.594-3.066.602-1.302 1.724-1.984 1.13-.692 2.643-.692 2.106 0 3.293 1.009 1.187 1 1.407 2.92h-2.374q-.163-1.018-.724-1.489-.553-.472-1.529-.472-1.244 0-1.895.936-.65.935-.658 2.78v.757q0 1.862.707 2.814.708.951 2.074.951 1.375 0 1.96-.585v-2.042h-2.22V32.64h4.66zM61.21 33.729h-4.684V36.9h5.497v1.96h-7.937V27.02h7.92v1.976h-5.48v2.822h4.684zM79.744 38.86h-2.44l-4.748-7.79v7.79h-2.44V27.02h2.44l4.757 7.807V27.02h2.431zM97.832 34.916q-.138 1.91-1.415 3.01-1.27 1.097-3.35 1.097-2.278 0-3.587-1.529-1.3-1.537-1.301-4.212v-.724q0-1.708.602-3.009.601-1.301 1.715-1.992 1.123-.7 2.603-.7 2.049 0 3.301 1.098t1.448 3.082h-2.44q-.09-1.146-.642-1.659-.546-.52-1.667-.52-1.22 0-1.83.878-.602.87-.618 2.708v.895q0 1.918.577 2.805.585.887 1.838.887 1.13 0 1.684-.513.561-.52.642-1.602zM110.178 32.355l2.464-5.335h2.667l-3.887 7.546v4.294h-2.48v-4.294l-3.888-7.546h2.676z"/></svg>
