<svg xmlns="http://www.w3.org/2000/svg" fill="currentColor" viewBox="0 0 59 60"><path d="m14.24 5.8-5.09-.65V51.6l5.1-.43zm-9.16 5.15L0 10.3v38.8l5.08-.43zM18.31 0v54.1L39.93 60 59 51.52V3.86zm38.17 29.4-2.55 2.86v-5.77l-5.25-.11 2.65-2.86 5.15.15zm0-8.59-2.55 2.79v-5.77l-5.25-.25v2.94L46 23.38v-5.92l-5.52-.27 2.79-2.85 5.41.31v2.94l2.65-2.78 5.15.3v5.73zm0-8.59-2.55 2.72V9.17l-5.25-.4v2.94L46 14.49V8.57l-5.52-.42v3.01l-2.83 2.85V7.93l-5.82-.44 2.94-2.84 5.7.49v3.01l2.79-2.77 5.41.46v2.94l2.65-2.71 5.15.44v5.73z"/></svg>
