<svg xmlns="http://www.w3.org/2000/svg" width="89" height="70" fill="currentColor" viewBox="0 0 89 70"><path d="M19.5 69.2q-6 0-10.4-3.2t-6.8-9A34 34 0 0 1 0 44q0-9 2.9-17A49 49 0 0 1 28.3 0l11 10.1a39.7 39.7 0 0 0-21 15.9q-3.3 5.2-4.5 10.7l1 .5q1-.8 2.6-1.3 1.5-.5 4.7-.5 3 0 6.5 1.8 3.4 1.8 5.5 5.4 2.3 3.4 2.3 9.1 0 4.8-2.3 8.6a18 18 0 0 1-6 6.5 16 16 0 0 1-8.6 2.4m48.9 0q-6 0-10.4-3.2t-6.8-9A34 34 0 0 1 49 44q0-9 2.8-17A49 49 0 0 1 77.2 0l11 10.1a39.7 39.7 0 0 0-21 15.9q-3.3 5.2-4.5 10.7l1 .5q1-.8 2.6-1.3 1.5-.5 4.7-.5 3 0 6.5 1.8 3.3 1.8 5.4 5.4 2.4 3.4 2.4 9.1 0 4.8-2.4 8.6a18 18 0 0 1-6 6.5 16 16 0 0 1-8.5 2.4"/></svg>
