<svg xmlns="http://www.w3.org/2000/svg" width="130" height="39" fill="currentColor" viewBox="0 0 130 39"><path fill="#1aa090" d="M0 0h32v31H0z"/><path d="M15.8 38V9.6h10.6q3.3 0 5.5 1.2 2.2 1 3.4 3.2 1.1 2 1.1 4.7t-1.1 4.7a8 8 0 0 1-3.4 3.1q-2.3 1.1-5.5 1.1h-7.6v-4.3h6.9a8 8 0 0 0 3.1-.5q1.2-.5 1.8-1.5a5 5 0 0 0 .6-2.6q0-1.5-.6-2.6-.6-1-1.8-1.6t-3.2-.6H21V38zm14.7-12.9 7 12.9h-5.8l-6.9-12.9zM50 38.4q-3.3 0-5.6-1.3a9 9 0 0 1-3.5-3.8q-1.3-2.5-1.3-5.8t1.3-5.8a9 9 0 0 1 8.8-5.2q2 0 3.7.6t3.1 2a9 9 0 0 1 2.1 3.3q.9 2 .8 4.8v1.5H42.1v-3.3h12.6q0-1.5-.6-2.6T52.4 21q-1.1-.6-2.5-.6-1.6 0-2.7.7t-1.9 2q-.6 1-.6 2.6v3a7 7 0 0 0 .7 3.1q.6 1.3 1.9 2t2.8.7l2-.3q.9-.3 1.5-1 .7-.5 1-1.4l4.7.5a7 7 0 0 1-1.7 3.2q-1.2 1.5-3.1 2.2t-4.4.7m18.7-12.9V38h-5V16.7h4.7v3.6h.3a6 6 0 0 1 2.3-2.8q1.7-1 4-1t3.9.9 2.5 2.7 1 4.4V38h-5V25.2q0-2.1-1.2-3.3a4 4 0 0 0-3-1.2q-1.4 0-2.4.6a4 4 0 0 0-1.6 1.6q-.5 1-.5 2.6M98 16.7v4H86v-4zm-9.2-5h5v19.9q0 1 .4 1.6.3.4.8.7l1.1.2 1.5-.2.8 3.9a11 11 0 0 1-3 .5q-1.8 0-3.3-.6t-2.4-2-.9-3.3zM102.3 38V16.7h5V38zm2.6-24.3a3 3 0 0 1-2-.8q-1-.8-1-2 0-1 1-1.8.8-.9 2-.8t2 .8.9 1.9q0 1-.9 2-.9.7-2 .7m7.3 24.3v-3.2l11-13.7v-.2h-10.6v-4.2h16.7v3.4L119 33.7v.1h10.8V38z"/></svg>
