<svg xmlns="http://www.w3.org/2000/svg" width="184" height="40" fill="none" viewBox="0 0 184 40"><rect width="93.3" height="40" x="89.9" fill="#83898f" rx="1"/><path fill="#83898f" d="M0 9.2h4.3L9 22.8c1.4-4.5 4.9-14.3 6-16.8Q18.3.4 25 1.2l-.5 4.3q-4-.7-5.6 2.7c-2.2 4-7.6 21.8-7.7 22l-.2.2H7.3zm27.3 3.5h-2.7V8.8h9.7v3.9h-3V26h-4zm-2.7 14h9.7v3.8h-9.7zm18-17.5h4.2l6.5 12.6V9.2h4v21.2l-.2.1h-4L46.7 18v12.6h-4z"/><path fill="#121b25" d="M165.1 26.3V23h6.1v-4.3h-12.6V23h2.4v7.6h13.3v-4.3zm0-13.1h8.6V8.9H161v9h4.1zm-62.3.3h-6.2V9.2H113v4.3h-6.2v17h-4z"/><path fill="#83898f" d="M78.2 17.8H62.5v4.1h15.7z"/><path fill="#121b25" d="M145.5 20.6v3.8h4.6a6 6 0 0 1-4 1.9c-3.4 0-6.1-2.9-6.1-6.4s2.7-6.3 6-6.3a6 6 0 0 1 5.5 3.6L155 15a10 10 0 0 0-9-5.8c-5.7 0-10.2 4.8-10.2 10.6 0 5.9 4.6 10.7 10.1 10.7 3.9 0 7.5-2 9.1-6.1v-3.9zM126.1 9.5h-3.8s-4.8 15.8-7.2 21.2h18.3zm-5 17.4 3.3-9.7 3.3 9.7z"/></svg>
