<svg xmlns="http://www.w3.org/2000/svg" width="136" height="32" fill="none" viewBox="0 0 136 32"><path fill="#83898f" d="M23.7 1.1h-5.4L11.8 18 5.3 1H0l11.8 30.6zm11.9 0h-5v30.6h5zm17.9 22.8c6 0 11-5.1 11-11.4 0-6.2-5-11.4-11-11.4s-11 5.2-11 11.4 5 11.4 11 11.4m0-17.7c3.4 0 6 2.8 6 6.3s-2.6 6.3-6 6.3-6.1-2.8-6.1-6.3 2.7-6.3 6-6.3m9.7 20.4H43.6v5.1h19.5zm24.2 0h-11V1.1h-4.9v30.6h15.9zm27 0H99.5V19h12.3v-5.1H99.5V6.3h14.8V1H94.5v30.6h19.8zm10.9 5.1h5V6.3h4.9V1h-14.8v5.2h5z"/><path fill="#83898f" d="M53.5 25.2c6.7 0 12.2-5.7 12.2-12.6 0-7-5.5-12.6-12.2-12.6S41.3 5.6 41.3 12.6s5.5 12.6 12.2 12.6m0-24.5C59.9.7 65 6 65 12.6c0 6.5-5.1 12-11.5 12s-11.6-5.4-11.6-12S47.1.6 53.5.6"/></svg>
